<?xml version="1.0" standalone="no"?>
<!DOCTYPE svg PUBLIC "-//W3C//DTD SVG 20010904//EN"
 "http://www.w3.org/TR/2001/REC-SVG-20010904/DTD/svg10.dtd">
<svg version="1.0" xmlns="http://www.w3.org/2000/svg"
 width="700.000000pt" height="700.000000pt" viewBox="0 0 700.000000 700.000000"
 preserveAspectRatio="xMidYMid meet">
<metadata>
Created by potrace 1.11, written by Peter Selinger 2001-2013
</metadata>
<g transform="translate(0.000000,700.000000) scale(0.100000,-0.100000)"
fill="#000000" stroke="none">
<path d="M796 6742 c-2 -4 -5 -545 -6 -1202 -3 -1285 -2 -1300 51 -1615 194
-1157 930 -2317 2074 -3270 228 -190 522 -405 555 -405 18 0 223 135 370 243
444 328 896 757 1231 1167 558 684 915 1422 1053 2173 63 340 61 294 61 1662
l0 1250 -2692 3 c-1480 1 -2694 -2 -2697 -6z m387 -288 c3 -4 -8 -23 -24 -44
l-31 -38 1 -324 c1 -375 9 -588 24 -605 7 -10 53 -13 167 -13 195 0 280 -8
280 -26 0 -19 -479 -21 -498 -2 -7 7 -12 44 -12 94 0 96 -6 104 -87 115 -31 4
-60 12 -66 18 -16 16 10 40 52 46 20 3 51 13 69 20 37 17 36 2 32 275 -1 132
-5 178 -15 189 -8 8 -39 16 -69 19 -100 8 -97 62 4 62 74 0 86 15 95 115 5 63
11 87 23 95 19 11 46 13 55 4z m444 -18 c23 -10 45 -25 49 -34 12 -25 16 -824
5 -841 -8 -12 -19 -12 -67 -3 -31 7 -96 12 -143 12 -47 0 -109 3 -138 6 -49 6
-52 8 -59 43 -8 40 -5 821 3 834 3 5 74 7 157 5 114 -3 161 -9 193 -22z m581
-423 l2 -443 -117 0 c-64 0 -168 -5 -230 -11 -62 -7 -116 -9 -120 -6 -8 9 -9
827 0 852 4 11 19 28 34 37 24 16 54 17 228 15 l200 -2 3 -442z m145 438 c24
-9 25 -15 28 -100 2 -49 9 -95 15 -101 6 -6 35 -13 65 -17 68 -8 85 -26 53
-57 -9 -10 -33 -16 -57 -16 -24 0 -53 -7 -65 -16 -22 -15 -22 -19 -22 -228 0
-151 3 -215 12 -224 7 -7 34 -12 61 -12 60 0 87 -14 87 -44 0 -29 -16 -36 -79
-36 -70 0 -78 -11 -85 -115 -4 -53 -11 -92 -19 -97 -11 -8 -517 1 -526 9 -3 2
1 9 8 16 8 8 79 13 244 17 228 5 232 5 243 27 7 16 13 175 17 480 6 452 5 458
-15 480 -11 12 -17 26 -13 32 8 13 17 14 48 2z m1014 -13 c104 -17 98 3 101
-307 3 -289 3 -290 -45 -256 -11 8 -35 40 -53 72 l-33 57 24 16 c84 54 103
143 43 203 -29 29 -68 37 -187 37 -100 0 -115 -11 -73 -53 23 -23 26 -34 25
-99 -1 -135 -15 -237 -35 -259 -16 -17 -16 -22 -4 -29 19 -12 127 -13 134 -1
3 5 -3 20 -14 34 -21 27 -26 82 -9 107 11 16 30 -3 102 -100 30 -41 37 -45 80
-48 l47 -3 0 -136 0 -135 -37 6 c-21 4 -110 10 -198 15 -88 5 -163 10 -167 10
-5 1 -8 199 -8 440 l0 440 38 4 c49 6 192 -2 269 -15z m623 3 c3 -3 3 -202 0
-441 l-5 -435 -210 -6 c-115 -3 -220 -9 -232 -14 l-23 -7 0 430 c0 430 0 431
22 451 20 20 41 26 113 34 45 6 329 -5 335 -12z m166 6 c1 -1 6 -46 11 -101 7
-63 15 -101 24 -107 8 -5 34 -9 60 -9 50 0 69 -13 69 -47 0 -25 -16 -31 -95
-35 l-50 -3 -3 -218 c-3 -255 -1 -262 64 -252 49 7 84 -7 84 -33 0 -29 -21
-42 -67 -42 -31 0 -49 -6 -64 -21 -19 -19 -21 -30 -16 -93 2 -39 1 -82 -4 -95
l-9 -23 -270 4 c-148 2 -273 7 -277 12 -4 4 0 13 9 20 13 9 85 15 245 19 126
3 236 8 246 12 16 7 17 38 17 468 l0 461 -27 39 c-22 32 -24 40 -12 48 11 7
60 4 65 -4z m-1196 -10 c0 -8 -11 -24 -25 -37 l-25 -23 0 -463 c0 -357 3 -464
13 -471 6 -6 104 -14 216 -17 185 -7 251 -16 251 -36 0 -4 -14 -10 -31 -14
-39 -7 -309 -6 -404 3 l-70 6 -7 67 c-13 138 -21 148 -117 148 -62 0 -82 19
-52 49 15 15 34 21 69 21 27 0 57 7 70 16 22 15 22 19 22 228 0 174 -3 216
-14 226 -8 6 -40 15 -71 19 -69 9 -85 23 -61 50 11 12 35 20 67 23 69 7 79 20
85 114 3 43 7 85 10 92 5 17 74 16 74 -1z m1744 4 c4 -5 -5 -23 -19 -39 l-25
-30 1 -448 c1 -247 4 -460 8 -474 l7 -25 189 0 c165 0 197 -3 245 -20 l55 -20
-155 -7 c-85 -5 -206 -5 -268 -2 -128 7 -117 -4 -126 123 -3 41 -9 78 -15 84
-5 5 -33 12 -61 15 -94 12 -94 72 0 72 75 0 75 1 75 247 0 244 4 233 -87 233
-49 0 -58 3 -63 21 -10 31 13 49 75 56 78 9 90 26 90 121 0 47 5 83 12 90 14
14 54 16 62 3z m403 1 c106 -9 125 -25 131 -110 5 -67 -11 -147 -63 -311 -19
-62 -35 -118 -35 -126 0 -15 -43 -45 -64 -45 -30 0 -37 38 -34 207 3 140 5
168 18 168 8 0 25 -19 38 -42 13 -24 27 -43 32 -43 5 0 12 21 15 48 13 87 12
87 -15 84 -60 -8 -187 -5 -206 6 -18 9 -24 9 -35 -4 -12 -15 -30 -114 -21
-114 2 0 20 14 39 30 65 57 67 52 60 -142 -6 -166 -7 -172 -32 -198 l-26 -27
62 -7 c93 -9 249 -7 249 4 0 5 -11 20 -24 34 -20 19 -23 29 -17 52 8 31 38 44
52 22 10 -15 12 -320 3 -368 -6 -30 -9 -31 -38 -26 -94 19 -162 26 -262 24
-61 -1 -116 2 -122 6 -9 5 -12 120 -12 447 l0 439 113 -1 c61 0 149 -4 194 -7z
m614 -9 c8 -35 -6 -862 -14 -870 -5 -4 -79 -8 -165 -9 -119 -1 -167 -5 -201
-17 -24 -9 -47 -14 -52 -11 -5 3 -9 95 -9 204 0 203 6 236 37 195 17 -25 17
-60 -2 -75 -12 -10 -13 -16 -3 -28 9 -11 26 -13 71 -9 32 3 61 8 64 11 3 3 -6
15 -20 28 -27 25 -63 127 -117 328 -33 128 -37 177 -15 219 21 41 62 49 256
50 151 1 167 -1 170 -16z m163 -5 c9 -15 15 -48 15 -90 0 -95 9 -108 75 -108
37 0 58 -5 67 -16 21 -26 -2 -48 -66 -61 -65 -13 -77 -25 -72 -68 2 -16 1
-113 -2 -215 -4 -123 -3 -188 4 -192 5 -5 29 -5 51 -2 49 7 84 -8 84 -36 0
-24 -28 -40 -72 -40 -57 0 -63 -9 -68 -117 l-5 -98 -260 -3 c-209 -2 -257 0
-247 10 9 10 70 14 220 16 177 3 209 6 225 20 18 16 19 36 12 472 -7 420 -9
458 -27 493 -22 44 -17 57 22 57 20 0 35 -8 44 -22z m-2872 -448 c-2 -256 -7
-431 -13 -443 -6 -10 -18 -17 -27 -15 -16 3 -17 39 -22 403 -3 220 -1 411 3
425 11 32 37 62 51 57 8 -3 10 -132 8 -427z m1748 -26 l0 -432 -24 -15 c-13
-9 -26 -13 -30 -10 -3 4 -6 198 -6 433 0 421 0 428 21 454 17 21 24 25 30 14
5 -7 9 -207 9 -444z m1044 434 c23 -33 24 -878 1 -878 -8 0 -19 9 -25 20 -11
21 -27 838 -16 865 8 21 22 19 40 -7z m-4576 -318 c0 -151 -3 -336 -7 -410 -5
-117 -8 -135 -23 -138 -22 -4 -22 -19 -18 463 2 335 4 382 19 399 15 17 16 17
22 -10 4 -16 7 -153 7 -304z m1070 -113 c2 -377 0 -437 -12 -437 -8 0 -18 5
-21 10 -8 13 -7 849 1 862 3 5 11 7 17 5 9 -3 13 -120 15 -440z m1780 421 c9
-9 12 -111 11 -402 0 -215 -3 -409 -7 -430 -7 -38 -8 -39 -25 -22 -19 19 -20
48 -19 481 1 399 1 385 15 385 7 0 18 -5 25 -12z m-741 -173 c44 -31 35 -140
-12 -159 -24 -9 -73 -7 -79 3 -12 19 -17 118 -7 144 8 22 17 27 44 27 18 0 42
-7 54 -15z m1942 -152 c14 -52 5 -65 -39 -59 -23 3 -25 6 -21 47 7 92 39 99
60 12z m-3045 -544 c15 -12 24 -25 19 -29 -4 -5 -111 -10 -238 -12 l-230 -3
-3 22 c-3 17 3 24 25 29 15 3 33 7 38 9 6 2 89 4 186 4 165 1 178 0 203 -20z
m1116 0 c47 -6 89 -14 95 -20 17 -17 -10 -44 -41 -42 -16 2 -112 7 -212 12
-101 5 -186 11 -188 14 -2 2 5 16 17 31 l22 28 111 -7 c61 -3 149 -11 196 -16z
m-1732 -5 c17 -4 32 -12 32 -20 0 -23 -30 -31 -83 -23 -28 5 -109 12 -179 15
-71 4 -128 10 -128 13 0 4 6 13 13 20 9 10 45 12 162 7 83 -3 165 -9 183 -12z
m2404 -1 c38 -34 23 -38 -144 -39 -90 -1 -198 -6 -240 -13 -88 -12 -110 -8
-106 23 5 36 56 45 272 45 172 1 202 -1 218 -16z m1171 -3 c52 -25 22 -67 -40
-56 -21 4 -115 10 -210 14 -95 4 -175 10 -178 14 -3 3 7 16 22 28 27 21 34 22
203 18 118 -3 184 -9 203 -18z m572 -10 c10 -11 15 -23 11 -28 -4 -4 -78 -7
-164 -8 -87 0 -185 -4 -218 -8 -49 -6 -62 -5 -67 7 -3 7 -2 18 1 24 19 27 54
32 233 33 174 0 187 -1 204 -20z m-4011 -41 c33 -26 34 -62 1 -94 -27 -28 -33
-29 -69 -15 -36 13 -36 64 1 102 32 34 33 34 67 7z m3543 -21 c40 -38 24 -98
-27 -98 -54 0 -72 56 -32 103 20 22 31 22 59 -5z m-1765 -23 c17 -38 -3 -75
-41 -75 -33 0 -65 25 -55 43 16 29 49 57 66 57 10 0 24 -11 30 -25z m-2094
-422 l-3 -118 -275 0 -275 0 -3 118 -3 117 281 0 281 0 -3 -117z m1310 0 l-3
-118 -300 0 -300 0 -3 118 -3 117 306 0 306 0 -3 -117z m1332 2 l0 -115 -305
0 -305 0 0 115 0 115 305 0 305 0 0 -115z m1320 0 l0 -115 -305 0 -305 0 0
115 0 115 305 0 305 0 0 -115z m-2462 -438 c6 -7 9 -23 5 -35 -11 -44 24 -106
83 -148 152 -108 199 -154 155 -154 -11 0 -22 4 -26 9 -3 6 -58 42 -123 82
-144 88 -172 116 -172 168 0 62 50 112 78 78z m654 -47 c87 -43 104 -55 108
-78 3 -16 16 -32 33 -40 15 -7 27 -21 27 -30 -1 -42 -23 -108 -45 -134 -30
-36 -32 -59 -5 -83 16 -15 20 -31 20 -83 0 -58 -3 -66 -30 -92 l-30 -28 0
-141 0 -141 -36 -15 c-34 -14 -35 -16 -28 -52 12 -67 34 -107 85 -151 80 -70
55 -96 -47 -48 -64 30 -115 75 -156 137 -35 55 -55 62 -64 22 -11 -52 -29 -96
-42 -101 -6 -2 -20 11 -29 29 -29 52 -57 81 -73 74 -8 -3 -32 -49 -52 -103
-21 -53 -60 -132 -89 -175 -53 -82 -125 -164 -135 -155 -3 3 5 34 17 69 16 47
22 89 23 159 2 164 -19 204 -74 145 -13 -14 -32 -25 -42 -25 -15 0 -18 8 -18
44 0 92 -14 95 -114 28 -41 -27 -107 -60 -155 -76 -88 -28 -226 -44 -277 -32
-28 7 -28 8 -9 23 11 8 43 25 70 37 78 36 140 91 271 242 l121 139 -13 35
c-14 39 -17 80 -8 104 8 20 38 21 55 0 65 -78 260 -68 304 16 22 42 16 74 -13
78 -28 4 -39 27 -22 47 19 23 51 18 94 -15 22 -17 48 -30 57 -30 37 0 52 77
25 128 -8 15 -37 49 -65 77 -50 48 -64 85 -40 101 6 4 8 20 5 39 -9 44 10 61
81 75 32 6 76 17 98 25 58 20 102 11 217 -45z m-1578 8 c18 -25 21 -74 6 -83
-15 -9 -60 41 -60 68 0 43 29 51 54 15z m-141 -27 c16 -10 49 -40 75 -67 26
-27 76 -71 112 -99 35 -27 87 -78 115 -112 56 -69 128 -129 226 -191 69 -44
207 -110 272 -131 32 -11 37 -16 31 -34 -13 -43 -199 -247 -225 -247 -22 0
-41 24 -78 98 -24 47 -40 67 -66 79 -33 16 -37 16 -71 0 -59 -28 -78 -14 -86
63 -4 36 -26 35 -86 -4 -53 -34 -100 -52 -109 -42 -3 3 8 27 25 53 40 63 62
115 62 150 0 51 -21 104 -55 141 l-33 37 -36 -18 c-45 -21 -70 -22 -86 -2 -7
8 -18 15 -25 15 -18 0 -36 25 -30 42 3 8 26 27 50 42 24 16 46 33 48 40 10 25
-13 53 -56 70 -51 19 -53 22 -56 89 -2 45 -1 47 26 47 15 0 41 -8 56 -19z
m3166 -49 c20 -37 23 -115 7 -161 -23 -64 -21 -96 9 -115 31 -21 33 -46 3 -46
-32 0 -66 -25 -135 -97 -77 -80 -110 -88 -194 -48 -53 26 -62 27 -97 17 -59
-18 -206 -111 -263 -167 -136 -133 -186 -294 -128 -411 25 -50 49 -65 68 -42
7 7 26 38 44 68 21 36 44 61 67 72 83 42 194 88 198 83 3 -3 -1 -24 -9 -47
-13 -41 -51 -85 -123 -142 -61 -48 -92 -128 -75 -191 14 -49 42 -46 115 13 89
71 200 112 307 112 48 0 31 -28 -38 -59 -110 -50 -225 -179 -211 -237 7 -26
28 -30 72 -14 48 18 104 28 109 19 3 -5 -4 -16 -16 -26 -75 -62 -86 -83 -104
-208 -17 -105 -33 -131 -102 -164 -40 -19 -55 -33 -69 -63 -10 -22 -38 -57
-63 -79 -84 -75 -206 -87 -313 -33 -42 21 -55 24 -74 15 -39 -18 -31 -45 39
-139 32 -42 55 -60 121 -92 44 -22 113 -47 151 -56 94 -22 115 -31 115 -48 0
-18 -143 -32 -231 -22 -57 7 -59 6 -59 -16 0 -13 7 -34 16 -46 23 -33 144
-110 198 -126 65 -20 76 -31 76 -81 0 -23 7 -59 15 -78 19 -46 19 -111 1 -127
-27 -22 -49 -97 -43 -144 7 -45 -1 -56 -39 -56 -9 0 -40 -21 -70 -47 -38 -33
-57 -58 -65 -85 -12 -48 -39 -65 -112 -74 l-57 -7 0 37 c0 48 -18 54 -72 22
-44 -25 -44 -25 -78 -7 -85 45 -58 84 77 111 126 25 186 59 219 123 12 22 13
45 6 116 -15 142 -60 183 -217 196 -50 4 -89 13 -105 24 -41 29 -61 32 -85 17
-20 -13 -25 -13 -41 -1 -30 23 -51 17 -65 -18 -21 -50 -89 -118 -144 -143 -61
-29 -68 -18 -32 53 14 26 37 89 53 138 15 50 36 104 46 120 25 42 23 70 -14
177 -29 86 -31 102 -28 208 5 255 4 282 -19 341 -36 93 -79 147 -170 215 -85
63 -161 94 -228 94 -17 0 -41 8 -53 18 -28 23 -21 49 24 101 18 20 56 73 85
119 29 45 55 82 57 82 2 0 14 -12 28 -26 31 -34 65 -27 97 21 37 55 57 54 133
-7 60 -47 68 -59 82 -108 49 -182 124 -334 240 -490 115 -155 208 -209 364
-209 l85 -1 43 42 c24 22 49 50 57 62 35 57 25 167 -25 267 -16 30 -71 112
-122 180 -148 197 -181 280 -160 411 16 108 61 189 156 283 97 97 145 129 354
238 190 100 235 130 296 198 46 51 76 122 76 181 0 32 24 38 39 10z m-2189
-1005 c14 -30 18 -32 70 -32 l55 0 -1 -65 c0 -68 -27 -169 -48 -182 -6 -4 -25
-8 -43 -8 -49 0 -77 -15 -104 -54 -29 -44 -54 -53 -79 -31 -33 30 -53 14 -102
-79 -53 -101 -73 -126 -100 -126 -15 0 -18 8 -18 59 0 76 -13 89 -78 73 -26
-6 -67 -14 -92 -17 -60 -9 -87 -28 -95 -65 -7 -33 -35 -51 -66 -43 -10 3 -33
22 -52 44 -20 21 -40 39 -46 39 -5 0 -20 -15 -32 -32 -42 -60 -57 -66 -121
-47 -76 21 -38 78 82 124 41 15 120 47 175 71 55 23 114 46 130 50 90 21 286
148 409 265 108 101 131 110 156 56z m-878 -296 c55 -35 66 -64 31 -80 -32
-15 -86 -14 -101 1 -7 7 -12 31 -12 53 0 65 13 70 82 26z m1506 -403 c30 -33
44 -76 43 -136 -1 -61 -18 -100 -74 -162 -66 -74 -97 -152 -97 -240 0 -123
-31 -135 -72 -28 -20 53 -28 63 -50 66 -34 4 -69 -44 -76 -104 -4 -39 -1 -48
32 -88 38 -46 48 -98 23 -113 -7 -4 -25 -29 -40 -54 -15 -27 -36 -49 -49 -53
-13 -3 -72 -6 -133 -6 -133 0 -166 -13 -210 -82 -16 -26 -36 -46 -44 -45 -8 1
-21 21 -29 45 -10 32 -20 43 -40 47 -15 3 -44 15 -65 26 -52 28 -87 27 -133
-5 -44 -30 -62 -31 -119 -12 -35 12 -41 19 -45 50 -5 33 -10 39 -67 66 -35 16
-63 34 -63 39 0 6 15 18 33 28 25 14 49 17 107 14 41 -2 116 -4 165 -3 50 1
157 1 238 2 133 1 150 3 167 20 24 24 26 77 5 107 -9 13 -42 43 -74 67 -34 27
-64 59 -71 78 -23 57 -39 70 -81 63 -32 -6 -38 -3 -44 14 -13 42 -31 50 -103
45 -66 -5 -100 4 -89 23 4 6 35 20 69 33 35 12 93 38 130 56 37 18 86 36 110
40 33 5 53 16 87 51 75 77 185 112 356 113 61 1 101 8 165 29 105 36 112 36
138 9z m-1099 -645 c32 -33 33 -37 15 -43 -11 -4 -37 -5 -59 -1 -30 5 -43 13
-53 34 -33 69 36 76 97 10z m1575 -589 c20 -8 21 -34 2 -34 -17 0 -38 24 -29
33 8 8 8 8 27 1z"/>
<path d="M1345 6263 c-34 -8 -37 -20 -12 -40 25 -19 78 -163 113 -306 25 -103
59 -102 88 3 53 195 81 266 118 307 27 29 15 43 -35 43 -56 0 -72 -11 -58 -38
16 -31 13 -75 -9 -127 -11 -26 -20 -55 -20 -65 0 -9 -6 -23 -14 -29 -19 -16
-39 20 -62 113 -15 61 -15 68 0 91 23 34 20 40 -17 42 -17 1 -41 4 -52 6 -11
2 -29 2 -40 0z"/>
<path d="M1991 6282 c-19 -13 -44 -17 -108 -15 -45 1 -85 -2 -88 -7 -3 -5 3
-18 15 -30 18 -18 20 -32 20 -179 0 -155 -1 -160 -25 -189 -14 -17 -25 -33
-25 -36 0 -3 65 -6 144 -6 162 0 173 4 162 65 -8 43 -30 46 -51 5 -9 -18 -26
-32 -43 -36 -15 -3 -35 -8 -45 -11 -10 -2 -24 1 -32 7 -19 15 -29 89 -21 145
7 43 9 45 41 45 24 0 41 -8 59 -27 29 -31 31 -28 40 60 4 31 2 57 -2 57 -5 0
-19 -11 -32 -24 -28 -31 -79 -44 -91 -25 -15 24 -10 116 7 133 20 20 60 12 95
-20 29 -28 54 -32 45 -8 -3 9 -6 28 -6 44 0 15 -8 37 -17 48 -17 20 -19 20
-42 4z"/>
<path d="M3630 6247 c0 -7 10 -17 23 -22 29 -13 35 -65 27 -220 -6 -107 -9
-117 -33 -143 -15 -16 -27 -31 -27 -35 0 -4 41 -7 92 -7 l92 0 -30 31 -29 30
1 156 1 156 31 29 c18 15 32 30 32 33 0 3 -40 5 -90 5 -66 0 -90 -3 -90 -13z"/>
<path d="M5558 6246 c-70 -14 -89 -31 -95 -89 -8 -73 1 -92 67 -137 68 -46 83
-67 78 -113 -3 -34 -21 -43 -64 -33 -18 5 -26 17 -35 51 -6 25 -15 45 -20 45
-5 0 -9 -33 -9 -73 l0 -73 74 -2 c72 -1 76 0 100 29 31 37 35 97 8 148 -9 19
-44 56 -77 81 -55 43 -60 50 -60 86 0 37 2 39 29 37 16 -1 42 -14 58 -29 28
-28 32 -25 29 21 -3 36 -11 65 -19 64 -4 -1 -33 -7 -64 -13z"/>
<path d="M3367 4473 c-15 -28 -16 -67 -2 -89 29 -44 134 -57 149 -18 16 43
-125 146 -147 107z"/>
<path d="M3662 4328 c-6 -6 -12 -27 -12 -45 0 -26 4 -33 20 -33 21 0 36 21 41
60 3 19 -1 26 -16 28 -11 1 -26 -3 -33 -10z"/>
<path d="M3427 4048 c-19 -29 -42 -66 -51 -81 l-18 -29 -23 22 c-33 31 -45 18
-45 -46 0 -94 30 -118 87 -70 39 33 116 185 111 221 -5 46 -25 40 -61 -17z"/>
</g>
</svg>
